<svg xmlns="http://www.w3.org/2000/svg" xmlns:xlink="http://www.w3.org/1999/xlink" width="2000" zoomAndPan="magnify" viewBox="0 0 1500 1499.999933" height="2000" preserveAspectRatio="xMidYMid meet" version="1.0"><defs><g/><clipPath id="4ad2455057"><path d="M 0.28125 0 L 1096 0 L 1096 1500 L 0.28125 1500 Z M 0.28125 0 " clip-rule="nonzero"/></clipPath><clipPath id="f94732c7dc"><rect x="0" width="1096" y="0" height="1500"/></clipPath><clipPath id="dd5de42be7"><path d="M 546 618 L 1158.71875 618 L 1158.71875 863.210938 L 546 863.210938 Z M 546 618 " clip-rule="nonzero"/></clipPath><clipPath id="95a4fa080e"><path d="M 569.542969 618.242188 L 1135.324219 618.242188 C 1141.488281 618.242188 1147.402344 620.691406 1151.761719 625.050781 C 1156.125 629.410156 1158.574219 635.324219 1158.574219 641.492188 L 1158.574219 839.960938 C 1158.574219 846.128906 1156.125 852.042969 1151.761719 856.402344 C 1147.402344 860.761719 1141.488281 863.210938 1135.324219 863.210938 L 569.542969 863.210938 C 563.375 863.210938 557.460938 860.761719 553.101562 856.402344 C 548.742188 852.042969 546.292969 846.128906 546.292969 839.960938 L 546.292969 641.492188 C 546.292969 635.324219 548.742188 629.410156 553.101562 625.050781 C 557.460938 620.691406 563.375 618.242188 569.542969 618.242188 Z M 569.542969 618.242188 " clip-rule="nonzero"/></clipPath><clipPath id="74d5afa635"><path d="M 0.28125 0.238281 L 612.71875 0.238281 L 612.71875 245.210938 L 0.28125 245.210938 Z M 0.28125 0.238281 " clip-rule="nonzero"/></clipPath><clipPath id="1cab0a012f"><path d="M 23.542969 0.242188 L 589.324219 0.242188 C 595.488281 0.242188 601.402344 2.691406 605.761719 7.050781 C 610.125 11.410156 612.574219 17.324219 612.574219 23.492188 L 612.574219 221.960938 C 612.574219 228.128906 610.125 234.042969 605.761719 238.402344 C 601.402344 242.761719 595.488281 245.210938 589.324219 245.210938 L 23.542969 245.210938 C 17.375 245.210938 11.460938 242.761719 7.101562 238.402344 C 2.742188 234.042969 0.292969 228.128906 0.292969 221.960938 L 0.292969 23.492188 C 0.292969 17.324219 2.742188 11.410156 7.101562 7.050781 C 11.460938 2.691406 17.375 0.242188 23.542969 0.242188 Z M 23.542969 0.242188 " clip-rule="nonzero"/></clipPath><clipPath id="71a2890c9f"><rect x="0" width="613" y="0" height="246"/></clipPath><clipPath id="690c00ba24"><rect x="0" width="1159" y="0" height="1500"/></clipPath></defs><g transform="matrix(1, 0, 0, 1, 137, 0.000000000000112861)"><g clip-path="url(#690c00ba24)"><g clip-path="url(#4ad2455057)"><g transform="matrix(1, 0, 0, 1, 0, 0.000000000000112861)"><g clip-path="url(#f94732c7dc)"><g fill="#000000" fill-opacity="1"><g transform="translate(21.606574, 1381.957918)"><g><path d="M 321.085938 0 L 973.617188 0 C 996.921875 0 1017.636719 -20.714844 1017.636719 -44.019531 L 1017.636719 -201.972656 C 1017.636719 -225.277344 996.921875 -245.992188 973.617188 -245.992188 L 321.085938 -245.992188 C 297.78125 -245.992188 277.066406 -266.707031 277.066406 -290.011719 L 277.066406 -942.542969 C 277.066406 -965.847656 297.78125 -986.5625 321.085938 -986.5625 L 973.617188 -986.5625 C 996.921875 -986.5625 1017.636719 -1007.277344 1017.636719 -1030.582031 L 1017.636719 -1188.535156 C 1017.636719 -1211.839844 996.921875 -1232.554688 973.617188 -1232.554688 L 321.085938 -1232.554688 C 297.78125 -1232.554688 277.066406 -1211.839844 277.066406 -1188.535156 L 277.066406 -1030.582031 C 277.066406 -1007.277344 256.351562 -986.5625 233.046875 -986.5625 L 75.09375 -986.5625 C 51.789062 -986.5625 31.074219 -965.847656 31.074219 -942.542969 L 31.074219 -290.011719 C 31.074219 -266.707031 51.789062 -245.992188 75.09375 -245.992188 L 233.046875 -245.992188 C 256.351562 -245.992188 277.066406 -225.277344 277.066406 -201.972656 L 277.066406 -44.019531 C 277.066406 -20.714844 297.78125 0 321.085938 0 Z M 321.085938 0 "/></g></g></g></g></g></g><g clip-path="url(#dd5de42be7)"><g clip-path="url(#95a4fa080e)"><g transform="matrix(1, 0, 0, 1, 546, 618)"><g clip-path="url(#71a2890c9f)"><g clip-path="url(#74d5afa635)"><g clip-path="url(#1cab0a012f)"><path fill="#000000" d="M 0.292969 0.242188 L 612.71875 0.242188 L 612.71875 245.210938 L 0.292969 245.210938 Z M 0.292969 0.242188 " fill-opacity="1" fill-rule="nonzero"/></g></g></g></g></g></g></g></g></svg>